<svg width="24" height="24" viewBox="0 0 24 24" fill="none" xmlns="http://www.w3.org/2000/svg">
  <g clip-path="url(#a)" fill="#3C9141">
    <path d="M18.873 14.999c-.036-.29-.27-.529-.562-.529s-.525.238-.56.529a4.234 4.234 0 0 1-3.67 3.669c-.29.035-.528.268-.528.56s.238.526.529.562a4.23 4.23 0 0 1 3.669 3.669c.035.289.268.527.56.527s.526-.238.562-.527a4.23 4.23 0 0 1 3.669-3.67c.29-.035.527-.269.527-.56 0-.293-.238-.526-.527-.561a4.23 4.23 0 0 1-3.67-3.67M10.41.725c-.031-.387-.343-.704-.733-.704s-.702.317-.733.704A8.46 8.46 0 0 1 1.219 8.45c-.388.032-.704.345-.704.733 0 .39.316.702.704.735a8.46 8.46 0 0 1 7.725 7.724c.031.388.343.705.733.705s.702-.317.734-.705a8.46 8.46 0 0 1 7.724-7.724c.389-.033.705-.345.705-.735 0-.388-.316-.701-.705-.733A8.46 8.46 0 0 1 10.411.725"/>
  </g>
  <defs>
    <clipPath id="a">
      <path fill="#fff" d="M.5 0h22.58v24H.5z"/>
    </clipPath>
  </defs>
</svg>
